<svg width="100" height="100" viewBox="0 0 100 100" fill="none" xmlns="http://www.w3.org/2000/svg">
<g clip-path="url(#clip0_25_1289)">
<path d="M48 12C48 10.8954 48.8955 10 50 10C51.1046 10 52 10.8954 52 12V20C52 21.1046 51.1046 22 50 22C48.8955 22 48 21.1046 48 20V12Z" fill="white"/>
<path fill-rule="evenodd" clip-rule="evenodd" d="M50.0407 0.000226675C64.4837 0.147064 73 11.4762 73 22V48.5C73 55.3143 69.2617 60.7361 64.8176 64.306C60.427 67.8329 54.8172 70 50 70C45.5101 70 39.7003 68.5422 34.9107 65.2263C29.9861 61.817 26.0001 56.3062 26 48.5C26 43.9522 25.9539 40.4316 25.913 37.3141C25.8436 32.0188 25.7895 27.8865 26.0025 21.8587C26.4136 10.2282 35.7489 -0.145073 50.0407 0.000226675ZM50 4.00002C62.0842 4.12288 69 13.5 69 22V48.5C69 59 57.5001 66 50 66C42.5 66 30.0001 61 30 48.5C30 43.8194 29.9529 40.2604 29.9117 37.1407C29.8427 31.9289 29.79 27.9427 30 22C30.3358 12.5001 37.9159 3.87716 50 4.00002Z" fill="white"/>
<path fill-rule="evenodd" clip-rule="evenodd" d="M64.1422 86.6863L51.4142 99.4142C50.6332 100.195 49.3669 100.195 48.5858 99.4142L35.8579 86.6863C35.0768 85.9052 35.0768 84.6389 35.8579 83.8579C36.6389 83.0768 37.9053 83.0768 38.6863 83.8579L48 93.1716V60C48 58.8954 48.8955 58 50 58C51.1046 58 52 58.8954 52 60V93.1716L61.3137 83.8579C62.0948 83.0768 63.3611 83.0768 64.1422 83.8579C64.9232 84.6389 64.9232 85.9052 64.1422 86.6863Z" fill="white"/>
<path d="M52 54C52 55.1046 51.1046 56 50 56C48.8955 56 48 55.1046 48 54C48 52.8954 48.8955 52 50 52C51.1046 52 52 52.8954 52 54Z" fill="white"/>
</g>
<defs>
<clipPath id="clip0_25_1289">
<rect width="100" height="100" fill="white"/>
</clipPath>
</defs>
</svg>
